<svg xmlns="http://www.w3.org/2000/svg" width="22" height="22" fill="none" viewBox="0 0 22 22"><path stroke="#787486" stroke-linecap="round" stroke-linejoin="round" stroke-width="1.5" d="M16.5556 21C16.5556 17.9318 14.0682 15.4444 11 15.4444C7.93175 15.4444 5.44444 17.9318 5.44444 21M16.5556 21H17.4479C18.69 21 19.3111 21 19.786 20.758C20.2041 20.545 20.545 20.2041 20.758 19.786C21 19.3111 21 18.69 21 17.4479V4.55212C21 3.30999 21 2.688 20.758 2.21311C20.545 1.79497 20.2041 1.45526 19.786 1.24221C19.3106 1 18.6892 1 17.4447 1H4.55577C3.31121 1 2.68847 1 2.21311 1.24221C1.79497 1.45526 1.45526 1.79497 1.24221 2.21311C1 2.68847 1 3.31121 1 4.55577V17.4447C1 18.6892 1 19.3106 1.24221 19.786C1.45526 20.2041 1.79497 20.545 2.21311 20.758C2.688 21 3.30999 21 4.55212 21H5.44444M16.5556 21H5.44444M11 12.1111C9.15905 12.1111 7.66667 10.6187 7.66667 8.77778C7.66667 6.93683 9.15905 5.44444 11 5.44444C12.841 5.44444 14.3333 6.93683 14.3333 8.77778C14.3333 10.6187 12.841 12.1111 11 12.1111Z"/></svg>