<svg xmlns="http://www.w3.org/2000/svg" fill="#D9282F" viewBox="0 0 35 43"><path d="m17.496 43-2.017-2.053 12.377-12.595a15 15 0 0 0 4.3-10.541c0-8.225-6.575-14.916-14.657-14.916-8.08 0-14.654 6.69-14.654 14.916 0 4.102 1.641 7.836 4.272 10.514.264.27.436.64.436 1.047 0 .797-.637 1.446-1.423 1.446-.398 0-.752-.16-1.02-.433C1.96 27.18 0 22.72 0 17.81 0 7.975 7.835 0 17.5 0S35 7.974 35 17.81a17.92 17.92 0 0 1-5.119 12.586L17.496 43Z"/><path d="M29.853 17.738c0-6.97-5.572-12.643-12.422-12.643-6.848 0-12.421 5.673-12.421 12.643 0 3.478 1.41 6.663 3.626 8.92.16.163.358.29.58.365.14.048.29.073.445.073.787 0 1.424-.648 1.424-1.45 0-.415-.172-.787-.445-1.052a9.799 9.799 0 0 1-2.781-6.856c0-5.371 4.295-9.742 9.572-9.742 5.278 0 9.573 4.37 9.573 9.742a9.798 9.798 0 0 1-2.806 6.883L11.792 37.25l2.015 2.05 12.42-12.641a12.713 12.713 0 0 0 3.626-8.92Z"/><path d="M24.706 17.695c0-4.099-3.279-7.434-7.31-7.434-4.029 0-7.307 3.335-7.307 7.434s3.278 7.434 7.308 7.434c4.03 0 7.31-3.335 7.31-7.434Zm-11.765 0c0-2.5 1.998-4.535 4.456-4.535 2.46 0 4.458 2.035 4.458 4.535s-1.998 4.535-4.458 4.535c-2.458 0-4.456-2.034-4.456-4.535Z" clip-rule="evenodd"/></svg>